# Blender v2.82 (sub 7) OBJ File: 'car.blend'
# www.blender.org
mtllib stop_sign.mtl
o Plane
v 0.100000 -0.500000 3.000000
v 0.100000 -0.500000 2.600000
v 0.100000 0.500000 2.600000
v 0.100000 0.500000 3.000000
v 0.100000 -0.200000 2.300000
v 0.100000 0.200000 2.300000
v 0.100000 0.200000 3.300000
v 0.100000 -0.200000 3.300000
v 0.100000 0.200000 2.600000
v 0.100000 -0.200000 2.600000
v 0.100000 0.200000 3.000000
v 0.100000 -0.200000 3.000000
v -0.100000 -0.500000 3.000000
v -0.100000 -0.500000 2.600000
v -0.100000 0.500000 2.600000
v -0.100000 0.500000 3.000000
v -0.100000 -0.200000 2.300000
v -0.100000 0.200000 2.300000
v -0.100000 0.200000 3.300000
v -0.100000 -0.200000 3.300000
v -0.100000 0.200000 2.600000
v -0.100000 -0.200000 2.600000
v -0.100000 0.200000 3.000000
v -0.100000 -0.200000 3.000000
v -0.040000 0.000000 0.000000
v -0.040000 0.000000 2.300000
v -0.039232 0.007804 0.000000
v -0.039232 0.007804 2.300000
v -0.036956 0.015307 0.000000
v -0.036955 0.015307 2.300000
v -0.033259 0.022223 0.000000
v -0.033259 0.022223 2.300000
v -0.028285 0.028284 0.000000
v -0.028285 0.028284 2.300000
v -0.022223 0.033259 0.000000
v -0.022223 0.033259 2.300000
v -0.015308 0.036955 0.000000
v -0.015308 0.036955 2.300000
v -0.007804 0.039231 0.000000
v -0.007804 0.039231 2.300000
v -0.000000 0.040000 0.000000
v -0.000000 0.040000 2.300000
v 0.007803 0.039231 0.000000
v 0.007803 0.039231 2.300000
v 0.015307 0.036955 0.000000
v 0.015307 0.036955 2.300000
v 0.022222 0.033259 0.000000
v 0.022222 0.033259 2.300000
v 0.028284 0.028284 0.000000
v 0.028284 0.028284 2.300000
v 0.033258 0.022223 0.000000
v 0.033258 0.022223 2.300000
v 0.036955 0.015307 0.000000
v 0.036955 0.015307 2.300000
v 0.039231 0.007804 0.000000
v 0.039231 0.007804 2.300000
v 0.040000 0.000000 0.000000
v 0.040000 0.000000 2.300000
v 0.039231 -0.007804 0.000000
v 0.039231 -0.007804 2.300000
v 0.036955 -0.015307 0.000000
v 0.036955 -0.015307 2.300000
v 0.033258 -0.022223 0.000000
v 0.033258 -0.022223 2.300000
v 0.028284 -0.028284 0.000000
v 0.028284 -0.028284 2.300000
v 0.022222 -0.033259 0.000000
v 0.022222 -0.033259 2.300000
v 0.015307 -0.036955 0.000000
v 0.015307 -0.036955 2.300000
v 0.007803 -0.039231 0.000000
v 0.007803 -0.039231 2.300000
v -0.000000 -0.040000 0.000000
v -0.000000 -0.040000 2.300000
v -0.007804 -0.039231 0.000000
v -0.007804 -0.039231 2.300000
v -0.015308 -0.036955 0.000000
v -0.015308 -0.036955 2.300000
v -0.022223 -0.033259 0.000000
v -0.022223 -0.033259 2.300000
v -0.028285 -0.028284 0.000000
v -0.028285 -0.028284 2.300000
v -0.033259 -0.022223 0.000000
v -0.033259 -0.022223 2.300000
v -0.036956 -0.015307 0.000000
v -0.036956 -0.015307 2.300000
v -0.039232 -0.007804 0.000000
v -0.039232 -0.007804 2.300000
vt 0.666667 0.000000
vt 0.666667 0.333333
vt 1.000000 0.333333
vt 0.000000 0.666667
vt 0.333333 1.000000
vt 0.333333 0.666667
vt 0.666667 0.666667
vt 0.333333 0.333333
vt 0.000000 0.333333
vt 0.333333 0.000000
vt 0.666667 1.000000
vt 1.000000 0.666667
vt 0.666667 0.000000
vt 1.000000 0.333333
vt 0.666667 0.333333
vt 0.000000 0.666667
vt 0.333333 0.666667
vt 0.333333 1.000000
vt 0.666667 0.666667
vt 0.333333 0.333333
vt 0.000000 0.333333
vt 0.333333 0.000000
vt 0.666667 1.000000
vt 1.000000 0.666667
vt 1.000000 1.000000
vt 0.968750 0.500000
vt 1.000000 0.500000
vt 0.968750 1.000000
vt 0.937500 0.500000
vt 0.937500 1.000000
vt 0.906250 0.500000
vt 0.906250 1.000000
vt 0.875000 0.500000
vt 0.843750 1.000000
vt 0.843750 0.500000
vt 0.812500 0.500000
vt 0.812500 1.000000
vt 0.781250 0.500000
vt 0.781250 1.000000
vt 0.750000 0.500000
vt 0.750000 1.000000
vt 0.718750 0.500000
vt 0.718750 1.000000
vt 0.687500 0.500000
vt 0.687500 1.000000
vt 0.656250 0.500000
vt 0.656250 1.000000
vt 0.625000 0.500000
vt 0.625000 1.000000
vt 0.593750 0.500000
vt 0.593750 1.000000
vt 0.562500 0.500000
vt 0.562500 1.000000
vt 0.531250 0.500000
vt 0.531250 1.000000
vt 0.500000 0.500000
vt 0.500000 1.000000
vt 0.468750 0.500000
vt 0.437500 1.000000
vt 0.437500 0.500000
vt 0.406250 0.500000
vt 0.406250 1.000000
vt 0.375000 0.500000
vt 0.375000 1.000000
vt 0.343750 0.500000
vt 0.343750 1.000000
vt 0.312500 0.500000
vt 0.312500 1.000000
vt 0.281250 0.500000
vt 0.281250 1.000000
vt 0.250000 0.500000
vt 0.218750 1.000000
vt 0.218750 0.500000
vt 0.187500 0.500000
vt 0.187500 1.000000
vt 0.156250 0.500000
vt 0.156250 1.000000
vt 0.125000 0.500000
vt 0.125000 1.000000
vt 0.093750 0.500000
vt 0.093750 1.000000
vt 0.062500 0.500000
vt 0.158156 0.028269
vt 0.471731 0.158156
vt 0.341844 0.471731
vt 0.031250 1.000000
vt 0.031250 0.500000
vt 0.000000 1.000000
vt 0.000000 0.500000
vt 0.796822 0.014612
vt 0.514611 0.203179
vt 0.703179 0.485389
vt 0.875000 1.000000
vt 0.468750 1.000000
vt 0.250000 1.000000
vt 0.062500 1.000000
vt 0.296822 0.485388
vt 0.250000 0.490000
vt 0.203179 0.485389
vt 0.158156 0.471731
vt 0.116663 0.449553
vt 0.080295 0.419706
vt 0.050447 0.383337
vt 0.028269 0.341844
vt 0.014612 0.296822
vt 0.028269 0.158156
vt 0.010000 0.250000
vt 0.014611 0.203179
vt 0.050447 0.116663
vt 0.080294 0.080295
vt 0.116663 0.050447
vt 0.203178 0.014612
vt 0.250000 0.010000
vt 0.296822 0.014612
vt 0.341844 0.028269
vt 0.383337 0.050447
vt 0.419706 0.080294
vt 0.449553 0.116663
vt 0.485388 0.203178
vt 0.490000 0.250000
vt 0.485388 0.296822
vt 0.471731 0.341844
vt 0.449553 0.383337
vt 0.419706 0.419706
vt 0.383337 0.449553
vt 0.750000 0.490000
vt 0.796822 0.485388
vt 0.841844 0.471731
vt 0.883337 0.449553
vt 0.919706 0.419706
vt 0.949553 0.383337
vt 0.971731 0.341844
vt 0.985388 0.296822
vt 0.990000 0.250000
vt 0.985388 0.203178
vt 0.971731 0.158156
vt 0.949553 0.116663
vt 0.919706 0.080294
vt 0.883337 0.050447
vt 0.841844 0.028269
vt 0.750000 0.010000
vt 0.703178 0.014612
vt 0.658156 0.028269
vt 0.616663 0.050447
vt 0.580294 0.080294
vt 0.550447 0.116663
vt 0.528269 0.158156
vt 0.510000 0.250000
vt 0.514612 0.296822
vt 0.528269 0.341844
vt 0.550447 0.383337
vt 0.580295 0.419706
vt 0.616663 0.449553
vt 0.658156 0.471731
vn -1.0000 0.0000 -0.0000
vn 1.0000 0.0000 0.0000
vn 0.0000 0.7071 -0.7071
vn 0.0000 -0.7071 -0.7071
vn 0.0000 0.0000 -1.0000
vn 0.0000 0.0000 1.0000
vn 0.0000 1.0000 0.0000
vn 0.0000 0.7071 0.7071
vn 0.0000 -0.7071 0.7071
vn 0.0000 -1.0000 0.0000
vn -0.9952 0.0980 0.0000
vn -0.9569 0.2903 0.0000
vn -0.8819 0.4714 0.0000
vn -0.7730 0.6344 0.0000
vn -0.6344 0.7730 -0.0000
vn -0.4714 0.8819 -0.0000
vn -0.2903 0.9569 0.0000
vn -0.0980 0.9952 0.0000
vn 0.0980 0.9952 0.0000
vn 0.2903 0.9569 0.0000
vn 0.4714 0.8819 0.0000
vn 0.6344 0.7730 0.0000
vn 0.7730 0.6344 0.0000
vn 0.8819 0.4714 -0.0000
vn 0.9569 0.2903 0.0000
vn 0.9952 0.0980 0.0000
vn 0.9952 -0.0980 0.0000
vn 0.9569 -0.2903 0.0000
vn 0.8819 -0.4714 0.0000
vn 0.7730 -0.6344 0.0000
vn 0.6344 -0.7730 -0.0000
vn 0.4714 -0.8819 0.0000
vn 0.2903 -0.9569 0.0000
vn 0.0980 -0.9952 0.0000
vn -0.0980 -0.9952 -0.0000
vn -0.2903 -0.9569 0.0000
vn -0.4714 -0.8819 -0.0000
vn -0.6344 -0.7730 -0.0000
vn -0.7730 -0.6344 -0.0000
vn -0.8819 -0.4714 -0.0000
vn -0.9569 -0.2903 -0.0000
vn -0.9952 -0.0980 0.0000
vn -0.0003 0.0000 1.0000
vn 0.0002 0.0000 1.0000
vn -0.0002 0.0000 1.0000
vn 0.0001 0.0000 1.0000
usemtl None
s off
f 6/1/1 9/2/1 3/3/1
f 1/4/1 8/5/1 12/6/1
f 11/7/1 3/3/1 9/2/1
f 1/4/1 10/8/1 2/9/1
f 12/6/1 9/2/1 10/8/1
f 2/9/1 10/8/1 5/10/1
f 10/8/1 6/1/1 5/10/1
f 7/11/1 4/12/1 11/7/1
f 8/5/1 11/7/1 12/6/1
f 18/13/2 15/14/2 21/15/2
f 13/16/2 24/17/2 20/18/2
f 15/14/2 23/19/2 21/15/2
f 22/20/2 13/16/2 14/21/2
f 21/15/2 24/17/2 22/20/2
f 14/21/2 17/22/2 22/20/2
f 18/13/2 22/20/2 17/22/2
f 19/23/2 23/19/2 16/24/2
f 23/19/2 20/18/2 24/17/2
f 1/4/3 20/18/3 8/5/3
f 7/11/4 16/24/4 4/12/4
f 8/5/5 19/23/5 7/11/5
f 6/1/6 17/22/6 5/10/6
f 2/9/7 13/16/7 1/4/7
f 5/10/8 14/21/8 2/9/8
f 3/3/9 18/13/9 6/1/9
f 4/12/10 15/14/10 3/3/10
f 26/25/11 27/26/11 25/27/11
f 28/28/12 29/29/12 27/26/12
f 30/30/13 31/31/13 29/29/13
f 32/32/14 33/33/14 31/31/14
f 33/33/15 36/34/15 35/35/15
f 36/34/16 37/36/16 35/35/16
f 38/37/17 39/38/17 37/36/17
f 40/39/18 41/40/18 39/38/18
f 42/41/19 43/42/19 41/40/19
f 44/43/20 45/44/20 43/42/20
f 46/45/21 47/46/21 45/44/21
f 48/47/22 49/48/22 47/46/22
f 50/49/23 51/50/23 49/48/23
f 52/51/24 53/52/24 51/50/24
f 54/53/25 55/54/25 53/52/25
f 56/55/26 57/56/26 55/54/26
f 58/57/27 59/58/27 57/56/27
f 59/58/28 62/59/28 61/60/28
f 62/59/29 63/61/29 61/60/29
f 64/62/30 65/63/30 63/61/30
f 66/64/31 67/65/31 65/63/31
f 68/66/32 69/67/32 67/65/32
f 70/68/33 71/69/33 69/67/33
f 72/70/34 73/71/34 71/69/34
f 73/71/35 76/72/35 75/73/35
f 76/72/36 77/74/36 75/73/36
f 78/75/37 79/76/37 77/74/37
f 80/77/38 81/78/38 79/76/38
f 82/79/39 83/80/39 81/78/39
f 84/81/40 85/82/40 83/80/40
f 62/83/6 46/84/6 30/85/6
f 85/82/41 88/86/41 87/87/41
f 87/87/42 26/88/42 25/89/42
f 55/90/5 71/91/5 87/92/5
f 11/7/1 4/12/1 3/3/1
f 1/4/1 12/6/1 10/8/1
f 12/6/1 11/7/1 9/2/1
f 10/8/1 9/2/1 6/1/1
f 8/5/1 7/11/1 11/7/1
f 15/14/2 16/24/2 23/19/2
f 22/20/2 24/17/2 13/16/2
f 21/15/2 23/19/2 24/17/2
f 18/13/2 21/15/2 22/20/2
f 23/19/2 19/23/2 20/18/2
f 1/4/3 13/16/3 20/18/3
f 7/11/4 19/23/4 16/24/4
f 8/5/5 20/18/5 19/23/5
f 6/1/6 18/13/6 17/22/6
f 2/9/7 14/21/7 13/16/7
f 5/10/8 17/22/8 14/21/8
f 3/3/9 15/14/9 18/13/9
f 4/12/10 16/24/10 15/14/10
f 26/25/11 28/28/11 27/26/11
f 28/28/12 30/30/12 29/29/12
f 30/30/13 32/32/13 31/31/13
f 32/32/14 34/93/14 33/33/14
f 33/33/15 34/93/15 36/34/15
f 36/34/16 38/37/16 37/36/16
f 38/37/17 40/39/17 39/38/17
f 40/39/18 42/41/18 41/40/18
f 42/41/19 44/43/19 43/42/19
f 44/43/20 46/45/20 45/44/20
f 46/45/21 48/47/21 47/46/21
f 48/47/22 50/49/22 49/48/22
f 50/49/23 52/51/23 51/50/23
f 52/51/24 54/53/24 53/52/24
f 54/53/25 56/55/25 55/54/25
f 56/55/26 58/57/26 57/56/26
f 58/57/27 60/94/27 59/58/27
f 59/58/28 60/94/28 62/59/28
f 62/59/29 64/62/29 63/61/29
f 64/62/30 66/64/30 65/63/30
f 66/64/31 68/66/31 67/65/31
f 68/66/32 70/68/32 69/67/32
f 70/68/33 72/70/33 71/69/33
f 72/70/34 74/95/34 73/71/34
f 73/71/35 74/95/35 76/72/35
f 76/72/36 78/75/36 77/74/36
f 78/75/37 80/77/37 79/76/37
f 80/77/38 82/79/38 81/78/38
f 82/79/39 84/81/39 83/80/39
f 84/81/40 86/96/40 85/82/40
f 30/85/43 28/97/43 26/98/43
f 26/98/6 88/99/6 86/100/6
f 86/100/44 84/101/44 82/102/44
f 82/102/45 80/103/45 78/104/45
f 78/104/6 76/105/6 70/106/6
f 76/105/6 74/107/6 70/106/6
f 74/107/46 72/108/46 70/106/46
f 70/106/6 68/109/6 62/83/6
f 68/109/6 66/110/6 62/83/6
f 66/110/6 64/111/6 62/83/6
f 62/83/6 60/112/6 58/113/6
f 58/113/45 56/114/45 62/83/45
f 56/114/6 54/115/6 62/83/6
f 54/115/6 52/116/6 50/117/6
f 50/117/6 48/118/6 46/84/6
f 46/84/6 44/119/6 42/120/6
f 42/120/6 40/121/6 46/84/6
f 40/121/6 38/122/6 46/84/6
f 38/122/6 36/123/6 30/85/6
f 36/123/46 34/124/46 30/85/46
f 34/124/6 32/125/6 30/85/6
f 30/85/6 26/98/6 78/104/6
f 26/98/6 86/100/6 78/104/6
f 86/100/6 82/102/6 78/104/6
f 54/115/6 50/117/6 62/83/6
f 50/117/6 46/84/6 62/83/6
f 78/104/6 70/106/6 62/83/6
f 46/84/6 38/122/6 30/85/6
f 30/85/6 78/104/6 62/83/6
f 85/82/41 86/96/41 88/86/41
f 87/87/42 88/86/42 26/88/42
f 87/92/5 25/126/5 27/127/5
f 27/127/5 29/128/5 87/92/5
f 29/128/5 31/129/5 87/92/5
f 31/129/5 33/130/5 35/131/5
f 35/131/5 37/132/5 39/133/5
f 39/133/5 41/134/5 43/135/5
f 43/135/5 45/136/5 47/137/5
f 47/137/5 49/138/5 51/139/5
f 51/139/5 53/140/5 55/90/5
f 55/90/5 57/141/5 59/142/5
f 59/142/5 61/143/5 63/144/5
f 63/144/5 65/145/5 71/91/5
f 65/145/5 67/146/5 71/91/5
f 67/146/5 69/147/5 71/91/5
f 71/91/5 73/148/5 75/149/5
f 75/149/5 77/150/5 79/151/5
f 79/151/5 81/152/5 87/92/5
f 81/152/5 83/153/5 87/92/5
f 83/153/5 85/154/5 87/92/5
f 31/129/5 35/131/5 87/92/5
f 35/131/5 39/133/5 87/92/5
f 39/133/5 43/135/5 47/137/5
f 47/137/5 51/139/5 55/90/5
f 55/90/5 59/142/5 71/91/5
f 59/142/5 63/144/5 71/91/5
f 71/91/5 75/149/5 87/92/5
f 75/149/5 79/151/5 87/92/5
f 39/133/5 47/137/5 87/92/5
f 47/137/5 55/90/5 87/92/5
